<?xml version="1.0" standalone="no"?>
<!DOCTYPE svg PUBLIC "-//W3C//DTD SVG 20010904//EN"
 "http://www.w3.org/TR/2001/REC-SVG-20010904/DTD/svg10.dtd">
<svg version="1.0" xmlns="http://www.w3.org/2000/svg"
 width="300.000000pt" height="300.000000pt" viewBox="0 0 300.000000 300.000000"
 preserveAspectRatio="xMidYMid meet">
<metadata>
Created by potrace 1.14, written by Peter Selinger 2001-2017
</metadata>
<g transform="translate(0.000000,300.000000) scale(0.100000,-0.100000)"
fill="#000000" stroke="none">
<path d="M1340 2106 c-93 -27 -177 -69 -227 -114 -21 -18 -43 -37 -48 -40 -22
-14 -84 -99 -108 -147 -41 -84 -57 -175 -52 -310 2 -66 6 -127 8 -135 2 -8 9
-50 17 -92 7 -43 17 -78 22 -78 5 0 7 -4 4 -9 -4 -5 6 -51 20 -103 14 -51 38
-144 54 -207 16 -63 37 -126 48 -140 19 -26 77 -59 115 -67 33 -6 31 -12 -7
-28 -20 -8 -36 -20 -36 -25 0 -6 -5 -11 -11 -11 -5 0 -27 -14 -48 -30 -36 -29
-53 -36 -112 -45 -46 -7 -163 -58 -214 -94 -78 -55 -205 -189 -205 -217 0 -8
-5 -14 -12 -14 -6 0 -8 -3 -5 -7 4 -3 1 -13 -6 -22 -13 -15 -47 -113 -54 -154
-3 -16 58 -17 1199 -15 l1203 3 -2 40 c-1 42 -12 160 -17 185 -1 8 -6 35 -10
60 -11 69 -12 73 -24 103 -7 16 -12 33 -12 38 0 20 -41 89 -70 119 -17 17 -56
43 -87 57 -48 22 -73 27 -172 29 -64 2 -134 -1 -155 -6 -38 -8 -42 -7 -81 33
-57 59 -115 85 -230 106 -63 11 -95 20 -86 25 11 7 12 34 7 130 -3 67 -8 134
-11 150 -3 16 -8 70 -10 120 -2 50 -5 91 -5 91 -1 0 -3 29 -5 65 -4 60 -14
209 -20 290 -2 19 -5 42 -8 50 -3 8 -13 46 -22 83 -35 143 -112 253 -218 311
-42 23 -66 29 -167 40 -14 2 -33 -1 -42 -5 -9 -5 -18 -5 -20 0 -2 5 -37 -1
-78 -13z"/>
</g>
</svg>
